<?xml version="1.0" standalone="no"?>
<!DOCTYPE svg PUBLIC "-//W3C//DTD SVG 20010904//EN"
 "http://www.w3.org/TR/2001/REC-SVG-20010904/DTD/svg10.dtd">
<svg version="1.0" xmlns="http://www.w3.org/2000/svg"
 width="16.000000pt" height="16.000000pt" viewBox="0 0 16.000000 16.000000"
 preserveAspectRatio="xMidYMid meet">
<metadata>
Created by potrace 1.11, written by Peter Selinger 2001-2013
</metadata>
<g transform="translate(0.000000,16.000000) scale(0.003516,-0.003516)"
fill="#000000" stroke="none">
<path d="M2098 4545 c-2 -1 -32 -6 -68 -9 -175 -18 -433 -79 -560 -133 -8 -3
-20 -7 -27 -8 -31 -7 -289 -138 -370 -188 -196 -122 -437 -338 -579 -517 -209
-265 -366 -593 -437 -915 -25 -110 -31 -149 -47 -280 -8 -75 -5 -437 5 -495
28 -161 47 -266 50 -271 2 -3 6 -16 9 -30 17 -90 113 -344 174 -459 58 -110
65 -121 141 -235 347 -519 901 -877 1511 -976 126 -20 187 -24 375 -24 280 0
436 22 678 96 786 241 1399 922 1556 1729 31 160 36 221 36 440 0 218 -8 306
-41 470 -162 795 -761 1458 -1540 1703 -107 34 -232 64 -324 77 -41 6 -86 14
-100 17 -27 5 -436 13 -442 8z m392 -655 c735 -96 1318 -688 1404 -1425 44
-380 -43 -757 -250 -1076 -176 -272 -442 -495 -739 -619 -117 -48 -183 -68
-356 -105 -82 -18 -321 -24 -444 -12 -246 23 -496 112 -715 255 -117 75 -160
111 -270 222 -168 168 -288 353 -374 580 -25 66 -65 211 -73 265 -2 17 -6 36
-9 44 -6 20 -18 182 -18 256 0 260 69 541 186 755 48 89 117 197 150 235 143
170 232 254 378 357 109 76 342 190 417 204 12 2 35 9 50 15 51 19 217 50 303
56 47 3 86 6 87 7 7 6 198 -4 273 -14z"/>
</g>
</svg>
